<svg width="80" height="80" viewBox="0 0 80 80" fill="none" xmlns="http://www.w3.org/2000/svg">
<path d="M34.944 48.144C33.648 48.144 32.488 47.8 31.464 47.112C30.456 46.424 29.664 45.44 29.088 44.16C28.528 42.864 28.248 41.344 28.248 39.6C28.248 37.856 28.528 36.344 29.088 35.064C29.664 33.768 30.456 32.776 31.464 32.088C32.488 31.4 33.648 31.056 34.944 31.056C36.24 31.056 37.392 31.4 38.4 32.088C39.424 32.776 40.224 33.768 40.8 35.064C41.376 36.344 41.664 37.856 41.664 39.6C41.664 41.344 41.376 42.864 40.8 44.16C40.224 45.44 39.424 46.424 38.4 47.112C37.392 47.8 36.24 48.144 34.944 48.144ZM34.944 46.56C35.92 46.56 36.776 46.288 37.512 45.744C38.264 45.2 38.848 44.408 39.264 43.368C39.68 42.328 39.888 41.072 39.888 39.6C39.888 38.128 39.68 36.872 39.264 35.832C38.848 34.792 38.264 34 37.512 33.456C36.776 32.912 35.92 32.64 34.944 32.64C33.968 32.64 33.104 32.912 32.352 33.456C31.616 34 31.04 34.792 30.624 35.832C30.208 36.872 30 38.128 30 39.6C30 41.072 30.208 42.328 30.624 43.368C31.04 44.408 31.616 45.2 32.352 45.744C33.104 46.288 33.968 46.56 34.944 46.56ZM48.7478 31.2V48H47.0198V32.736H43.0598V31.2H48.7478Z" fill="black"/>
<rect x="1" y="1" width="78" height="78" rx="39" stroke="#151517" stroke-width="2"/>
</svg>
