<svg width="32" height="32" viewBox="0 0 32 32" fill="none" xmlns="http://www.w3.org/2000/svg">
<path d="M14.8126 0.0374794C14.6938 0.0499783 14.3251 0.093729 14.0001 0.131229C9.0563 0.693729 4.48755 3.79373 1.97505 8.28748C1.06255 9.92498 0.400049 11.9625 0.118799 14C0.00629882 14.7812 0.00629882 17.2187 0.118799 18C0.775049 22.7625 3.31255 26.8062 7.2813 29.4125C12.5313 32.8625 19.5063 32.85 24.7626 29.3875C32.6751 24.1687 34.3813 13.3187 28.4563 5.96873C25.9001 2.79998 22.3688 0.787479 18.2501 0.156229C17.6251 0.062479 15.3001 -0.0187721 14.8126 0.0374794ZM18.2188 2.18123C22.1438 2.84373 25.4563 4.98123 27.6626 8.28748C28.7813 9.95623 29.5126 11.8687 29.8563 13.9687C30.0063 14.925 30.0063 17.075 29.8563 18.0312C29.1813 22.2062 26.8938 25.6687 23.3438 27.9062C21.8251 28.8625 19.9876 29.5375 18.0313 29.8562C17.0688 30.0062 14.9251 30.0062 13.9688 29.85C9.8563 29.1812 6.48755 27.0062 4.23755 23.5625C3.18755 21.9562 2.4813 20.0812 2.1438 18.0312C1.9938 17.075 1.9938 14.925 2.1438 13.9687C2.65005 10.8625 3.96255 8.26873 6.1188 6.12498C8.5063 3.74373 11.5063 2.34373 14.8751 2.03748C15.5501 1.97498 17.4876 2.06248 18.2188 2.18123Z" fill="black"/>
<path d="M15.5938 6.08745C15.1313 6.29995 15 6.6062 15 7.4687V8.11245L14.5813 8.2437C14.025 8.41245 13.4563 8.7562 12.9375 9.2312C11.4188 10.6375 11.0688 12.9625 12.1063 14.75C12.2375 14.975 12.5688 15.3812 12.8438 15.6562C13.7125 16.525 14.5313 16.8875 15.8875 16.9937C16.5688 17.05 16.7 17.0812 17.1 17.275C17.6375 17.5437 18 17.9187 18.2688 18.4875C18.45 18.8687 18.4688 18.9625 18.4688 19.5C18.4688 20.0375 18.45 20.1312 18.2688 20.5125C17.9938 21.0937 17.6438 21.4562 17.075 21.7375C16.625 21.9562 16.5688 21.9687 16.0063 21.9687C15.4625 21.9687 15.3688 21.95 15 21.775C14.1125 21.35 13.6125 20.6375 13.5063 19.6312C13.4438 19.0812 13.3563 18.9 13.0375 18.6625C12.9125 18.5625 12.775 18.5312 12.5 18.5312C12.1063 18.5312 11.9063 18.6312 11.6688 18.95C11.3 19.4437 11.5938 20.9625 12.2563 21.975C12.7625 22.7562 13.725 23.5 14.575 23.7562L14.9875 23.8812L15.0125 24.625C15.0313 25.425 15.0813 25.5562 15.4625 25.8375C15.7063 26.0187 16.2938 26.0187 16.5375 25.8375C16.9188 25.5562 16.9688 25.425 16.9875 24.6375L17.0125 23.9062L17.5 23.7312C19.3875 23.0625 20.6188 21.1812 20.4813 19.1812C20.4 18.075 19.975 17.1625 19.1563 16.3437C18.2875 15.475 17.4688 15.1125 16.1125 15.0062C15.4313 14.95 15.3 14.9187 14.9 14.725C14.3625 14.4562 14 14.0812 13.7313 13.5125C13.55 13.1312 13.5313 13.0375 13.5313 12.4937C13.5313 11.9312 13.5438 11.875 13.7625 11.425C14.0438 10.8562 14.4063 10.5062 14.9875 10.2312C15.3688 10.05 15.4625 10.0312 16 10.0312C16.5375 10.0312 16.6313 10.05 17.0125 10.2312C17.8813 10.6437 18.3875 11.3687 18.4938 12.3687C18.5563 12.9187 18.6438 13.1 18.9625 13.3375C19.2063 13.5187 19.7938 13.5187 20.0375 13.3375C20.4688 13.0187 20.5688 12.6375 20.4375 11.825C20.1688 10.1625 18.975 8.73745 17.425 8.23745L17.0125 8.1062L16.9875 7.3687C16.9688 6.57495 16.9188 6.4437 16.55 6.1687C16.3375 6.01245 15.8438 5.9687 15.5938 6.08745Z" fill="black"/>
</svg>
