<svg width="26" height="23" viewBox="0 0 26 23" fill="none" xmlns="http://www.w3.org/2000/svg">
<path d="M10.7296 2.26786C9.48256 3.27266 6.54643 5.63173 4.1998 7.51572C0.373763 10.5956 -0.0570199 10.956 0.00533028 11.0434C0.0450077 11.098 0.368095 11.4748 0.725192 11.8844L1.3657 12.6271L1.79081 12.2939C2.02321 12.1083 2.2216 11.939 2.2386 11.9117C2.25561 11.8898 2.28961 11.868 2.32362 11.868C2.35196 11.868 2.37464 13.8394 2.37464 17.0285V22.189H13.0875H23.8004V17.0831V11.9718L24.2029 12.2994L24.6053 12.6271L25.3138 11.8079C25.705 11.3601 26.011 10.9724 25.9997 10.9451C25.9884 10.9124 14.2892 1.47604 13.0762 0.520399C12.9968 0.460329 12.6738 0.706068 10.7296 2.26786ZM17.3897 6.8222L21.5332 10.1478V15.0735V20.0046H13.0875H4.64192V14.9916L4.64759 9.98401L8.81371 6.63653L12.9855 3.2945L13.1159 3.39826C13.1952 3.45286 15.1168 4.99282 17.3897 6.8222Z" fill="#151517"/>
</svg>
