<svg width="180" height="47" viewBox="0 0 180 47" fill="none" xmlns="http://www.w3.org/2000/svg">
<path d="M41.62 24.448C42.316 24.676 42.868 25.06 43.276 25.6C43.684 26.128 43.888 26.788 43.888 27.58C43.888 28.672 43.468 29.518 42.628 30.118C41.788 30.706 40.564 31 38.956 31H32.692V18.4H38.596C40.084 18.4 41.23 18.694 42.034 19.282C42.838 19.858 43.24 20.656 43.24 21.676C43.24 22.3 43.096 22.852 42.808 23.332C42.52 23.812 42.124 24.184 41.62 24.448ZM35.032 20.236V23.71H38.344C39.16 23.71 39.784 23.566 40.216 23.278C40.66 22.978 40.882 22.546 40.882 21.982C40.882 21.406 40.66 20.974 40.216 20.686C39.784 20.386 39.16 20.236 38.344 20.236H35.032ZM38.812 29.164C40.624 29.164 41.53 28.558 41.53 27.346C41.53 26.134 40.624 25.528 38.812 25.528H35.032V29.164H38.812ZM51.8034 31.18C50.0634 31.18 48.7074 30.694 47.7354 29.722C46.7634 28.738 46.2774 27.334 46.2774 25.51V18.4H48.6174V25.42C48.6174 27.892 49.6854 29.128 51.8214 29.128C53.9454 29.128 55.0074 27.892 55.0074 25.42V18.4H57.3114V25.51C57.3114 27.334 56.8254 28.738 55.8534 29.722C54.8934 30.694 53.5434 31.18 51.8034 31.18ZM60.5885 18.4H62.9285V31H60.5885V18.4ZM66.3365 18.4H68.6765V29.02H75.2645V31H66.3365V18.4ZM77.1119 18.4H82.6199C83.9639 18.4 85.1579 18.664 86.2019 19.192C87.2459 19.708 88.0559 20.446 88.6319 21.406C89.2079 22.354 89.4959 23.452 89.4959 24.7C89.4959 25.948 89.2079 27.052 88.6319 28.012C88.0559 28.96 87.2459 29.698 86.2019 30.226C85.1579 30.742 83.9639 31 82.6199 31H77.1119V18.4ZM82.5119 29.02C83.4359 29.02 84.2459 28.846 84.9419 28.498C85.6499 28.138 86.1899 27.634 86.5619 26.986C86.9459 26.326 87.1379 25.564 87.1379 24.7C87.1379 23.836 86.9459 23.08 86.5619 22.432C86.1899 21.772 85.6499 21.268 84.9419 20.92C84.2459 20.56 83.4359 20.38 82.5119 20.38H79.4519V29.02H82.5119ZM108.532 31L108.514 22.648L104.374 29.56H103.33L99.1896 22.756V31H96.9576V18.4H98.8836L103.888 26.752L108.802 18.4H110.728L110.746 31H108.532ZM120.035 31.18C118.751 31.18 117.593 30.904 116.561 30.352C115.529 29.788 114.719 29.014 114.131 28.03C113.543 27.034 113.249 25.924 113.249 24.7C113.249 23.476 113.543 22.372 114.131 21.388C114.719 20.392 115.529 19.618 116.561 19.066C117.593 18.502 118.751 18.22 120.035 18.22C121.319 18.22 122.477 18.502 123.509 19.066C124.541 19.618 125.351 20.386 125.939 21.37C126.527 22.354 126.821 23.464 126.821 24.7C126.821 25.936 126.527 27.046 125.939 28.03C125.351 29.014 124.541 29.788 123.509 30.352C122.477 30.904 121.319 31.18 120.035 31.18ZM120.035 29.128C120.875 29.128 121.631 28.942 122.303 28.57C122.975 28.186 123.503 27.658 123.887 26.986C124.271 26.302 124.463 25.54 124.463 24.7C124.463 23.86 124.271 23.104 123.887 22.432C123.503 21.748 122.975 21.22 122.303 20.848C121.631 20.464 120.875 20.272 120.035 20.272C119.195 20.272 118.439 20.464 117.767 20.848C117.095 21.22 116.567 21.748 116.183 22.432C115.799 23.104 115.607 23.86 115.607 24.7C115.607 25.54 115.799 26.302 116.183 26.986C116.567 27.658 117.095 28.186 117.767 28.57C118.439 28.942 119.195 29.128 120.035 29.128ZM129.301 18.4H134.809C136.153 18.4 137.347 18.664 138.391 19.192C139.435 19.708 140.245 20.446 140.821 21.406C141.397 22.354 141.685 23.452 141.685 24.7C141.685 25.948 141.397 27.052 140.821 28.012C140.245 28.96 139.435 29.698 138.391 30.226C137.347 30.742 136.153 31 134.809 31H129.301V18.4ZM134.701 29.02C135.625 29.02 136.435 28.846 137.131 28.498C137.839 28.138 138.379 27.634 138.751 26.986C139.135 26.326 139.327 25.564 139.327 24.7C139.327 23.836 139.135 23.08 138.751 22.432C138.379 21.772 137.839 21.268 137.131 20.92C136.435 20.56 135.625 20.38 134.701 20.38H131.641V29.02H134.701ZM149.59 31.18C147.85 31.18 146.494 30.694 145.522 29.722C144.55 28.738 144.064 27.334 144.064 25.51V18.4H146.404V25.42C146.404 27.892 147.472 29.128 149.608 29.128C151.732 29.128 152.794 27.892 152.794 25.42V18.4H155.098V25.51C155.098 27.334 154.612 28.738 153.64 29.722C152.68 30.694 151.33 31.18 149.59 31.18ZM158.376 18.4H160.716V29.02H167.304V31H158.376V18.4ZM178.601 29.038V31H169.151V18.4H178.349V20.362H171.491V23.638H177.575V25.564H171.491V29.038H178.601Z" fill="white"/>
<path d="M12.4317 12.0294C11.8591 12.1326 11.2047 12.4164 10.8 12.7345C10.5331 12.9452 3.6274 19.1881 3.14951 19.6568C2.59843 20.1899 2.30568 20.6715 2.09902 21.3895L2 21.7249V26.3038C2 30.6335 2.00431 30.9 2.0818 31.1838C2.4047 32.4006 3.31311 33.4024 4.4454 33.7893C4.63914 33.8538 4.92329 33.9312 5.07828 33.9527C5.26341 33.9828 7.91546 34 13.0431 34C20.3836 34 20.7452 33.9957 21.1198 33.9183C22.4759 33.6388 23.535 32.5812 23.901 31.1365L24 30.7539V26.2179V21.6819L23.8795 21.3035C23.6599 20.5984 23.3973 20.1856 22.8333 19.6353C22.6223 19.4332 21.2016 18.139 19.6732 16.7589C18.1448 15.3744 16.5562 13.9341 16.1429 13.56C15.7295 13.1817 15.2818 12.7947 15.1483 12.6958C14.8297 12.4637 14.3476 12.2272 13.9472 12.1154C13.5855 12.0122 12.7675 11.9649 12.4317 12.0294ZM13.5769 14.377C13.6673 14.42 15.4411 15.9979 17.5162 17.8768C20.4783 20.564 21.3135 21.3422 21.4211 21.5228C21.7139 22.0129 21.701 21.7377 21.6881 26.5188L21.6751 30.8398L21.5546 31.0677C21.3953 31.3687 21.137 31.6181 20.8399 31.7599L20.5988 31.8717H12.9569H5.31507L5.02661 31.7298C4.69511 31.5665 4.46693 31.3343 4.30763 30.9946L4.19569 30.7539L4.18278 26.5016C4.17847 23.8058 4.18708 22.1634 4.21722 22.0172C4.23875 21.8882 4.29041 21.7163 4.32916 21.6303C4.37652 21.5314 4.87162 21.0541 5.74129 20.263C11.1358 15.3701 12.0528 14.5489 12.2035 14.4715C12.5135 14.3082 12.7072 14.2652 13.0646 14.2824C13.2885 14.291 13.465 14.3254 13.5769 14.377Z" fill="#F3F3F3"/>
</svg>
