<svg width="32" height="32" viewBox="0 0 32 32" fill="none" xmlns="http://www.w3.org/2000/svg">
<path d="M3.21875 1.35625C2.875 1.4 2.35625 1.56875 2 1.75C1.16875 2.16875 0.45 3.0125 0.175 3.89375L0.03125 4.34375V16V27.6562L0.175 28.1063C0.53125 29.25 1.48125 30.1625 2.725 30.5437C3.075 30.65 3.65625 30.6562 16 30.6562C28.3563 30.6562 28.925 30.65 29.2812 30.5437C30.4937 30.1687 31.375 29.3438 31.8 28.1812L31.9688 27.7188L31.9875 16.2063C32.0063 3.55625 32.0188 4.20625 31.6313 3.40625C31.2 2.53125 30.4188 1.85 29.4688 1.51875L28.9688 1.34375L16.1875 1.3375C9.15625 1.33125 3.325 1.34375 3.21875 1.35625ZM28.9688 3.45625C29.2812 3.6 29.6562 3.95625 29.8313 4.28125C29.9375 4.48125 29.9688 4.66875 29.9875 5.2625L30.0125 6H16H1.9875L2.0125 5.2625C2.0375 4.4125 2.125 4.1875 2.575 3.76875C2.825 3.54375 3.025 3.44375 3.40625 3.35625C3.475 3.3375 9.2 3.33125 16.125 3.3375C28.1063 3.34375 28.7313 3.35 28.9688 3.45625ZM29.9875 17.7312L29.9688 27.4688L29.8313 27.7188C29.6562 28.0562 29.2063 28.4625 28.9 28.5687C28.5375 28.7 3.4625 28.7 3.1 28.5687C2.79375 28.4625 2.34375 28.0562 2.16875 27.7188L2.03125 27.4688L2.0125 17.7312L2 8H16H30L29.9875 17.7312Z" fill="black"/>
<path d="M4.59373 12.0875C4.33748 12.2 4.07498 12.5188 4.03123 12.7688C4.00623 12.8812 3.99998 13.5062 4.01248 14.1687C4.03123 15.4812 4.04373 15.5312 4.46248 15.8375C4.70623 16.0188 5.29372 16.0188 5.53747 15.8375C5.91247 15.5625 5.96872 15.4187 5.98747 14.6812L6.01247 14H7.84997H9.68747V18.65V23.2938L9.19372 23.325C8.61247 23.3562 8.34372 23.4875 8.13747 23.85C7.87497 24.3062 8.01872 24.8438 8.49997 25.1688C8.69997 25.3125 8.73747 25.3125 10.6375 25.3125C12.775 25.3125 12.8687 25.3 13.1375 24.9187C13.35 24.625 13.3625 24.0938 13.175 23.8125C12.9625 23.4937 12.5625 23.3125 12.0812 23.3125H11.6875V18.6562V14H13.4937H15.3L15.325 14.6438C15.35 15.3938 15.475 15.6687 15.8937 15.8812C16.3562 16.1187 16.85 15.9688 17.175 15.5C17.3062 15.3 17.3125 15.2375 17.3125 14C17.3125 12.7625 17.3062 12.7 17.175 12.5C17.0937 12.3875 16.95 12.2312 16.8562 12.1625C16.6812 12.0312 16.6562 12.0312 10.7312 12.0188C5.88122 12.0062 4.74373 12.0188 4.59373 12.0875Z" fill="black"/>
<path d="M20.5937 12.0874C20.175 12.2687 19.9375 12.7499 20.025 13.2187C20.0812 13.5124 20.3937 13.8562 20.675 13.9374C20.8312 13.9874 21.9812 13.9999 24.1375 13.9874C27.2875 13.9687 27.3687 13.9624 27.5375 13.8374C27.8687 13.5937 27.9687 13.3937 27.9687 12.9999C27.9687 12.6062 27.8687 12.4062 27.5375 12.1624C27.3687 12.0312 27.2875 12.0312 24.075 12.0187C21.4312 12.0062 20.7437 12.0187 20.5937 12.0874Z" fill="black"/>
<path d="M20.6688 17.4C20.3625 17.5125 20.2688 17.6 20.1125 17.9C19.8813 18.3562 20.0313 18.8562 20.5 19.1687L20.7063 19.3125H24H27.2938L27.5 19.1687C27.8 18.9687 27.95 18.7375 27.9813 18.425C28.025 18.0625 27.8375 17.6875 27.5188 17.4937L27.2813 17.3437L24.0938 17.3312C21.5375 17.3187 20.8625 17.3312 20.6688 17.4Z" fill="black"/>
<path d="M20.5 22.825C20.2 23.0312 20.05 23.2625 20.0187 23.575C19.975 23.9375 20.1625 24.3125 20.4812 24.5062L20.7187 24.6562H24H27.2812L27.5187 24.5062C27.8375 24.3125 28.025 23.9375 27.9812 23.575C27.95 23.2625 27.8 23.0312 27.5 22.825L27.2937 22.6875H24H20.7062L20.5 22.825Z" fill="black"/>
</svg>
