<svg width="32" height="32" viewBox="0 0 32 32" fill="none" xmlns="http://www.w3.org/2000/svg">
<path d="M5.71875 1.09375C3.5 1.50625 1.78125 3.1 1.175 5.31875L1.03125 5.84375V16V26.1562L1.175 26.6813C1.7375 28.75 3.25 30.2625 5.325 30.825L5.84375 30.9688H16C25.475 30.9688 26.1875 30.9625 26.5813 30.8562C28.6812 30.3187 30.2563 28.7687 30.825 26.675L30.9688 26.1562V16V5.84375L30.825 5.31875C30.2625 3.2625 28.7688 1.75625 26.7 1.16875L26.2188 1.03125L16.1875 1.01875C8.175 1.0125 6.06875 1.025 5.71875 1.09375ZM26.1375 3.11875C27.5375 3.48125 28.5188 4.4625 28.8813 5.8625C28.9937 6.31875 29 6.64375 29 16C29 25.3562 28.9937 25.6813 28.8813 26.1375C28.5188 27.5375 27.5375 28.5187 26.1375 28.8812C25.6812 28.9937 25.3563 29 16 29C6.575 29 6.31875 29 5.85 28.875C4.4375 28.5125 3.40625 27.45 3.09375 26.0312C3.00625 25.6437 3 24.4688 3.0125 15.7812L3.03125 5.96875L3.1625 5.625C3.53125 4.6625 3.95 4.11875 4.7125 3.61875C5.09375 3.36875 5.6125 3.15 6.03125 3.0625C6.16875 3.0375 10.6438 3.0125 15.975 3.00625C25.3687 3 25.6812 3.00625 26.1375 3.11875Z" fill="black"/>
<path d="M6.36251 6.09999C5.99376 6.29374 6.00001 6.24374 6.00001 9.94374C6.00001 13.2437 6.00626 13.3437 6.13126 13.6C6.30001 13.9562 6.60001 14.1375 7.00001 14.1375C7.40001 14.1375 7.70001 13.9562 7.86876 13.6C7.99376 13.35 8.00001 13.2312 8.00001 11.3687V9.40624L15.2813 16.6875L22.5625 23.9687L20.55 24C18.3 24.0375 18.2625 24.0437 18 24.4687C17.6938 24.9625 17.8813 25.6187 18.4 25.8687C18.6563 25.9937 18.7563 26 22.0563 26C25.775 26 25.7063 26.0062 25.9062 25.625C25.9875 25.4687 26 24.9625 26 22.0562C26 18.7562 25.9937 18.6562 25.8687 18.4C25.525 17.6812 24.4813 17.675 24.125 18.3812C24.0063 18.6062 24 18.7562 24 20.6062V22.5937L16.7188 15.3125L9.43751 8.03124L11.45 7.99999C13.3875 7.96874 13.475 7.96249 13.6875 7.83124C13.9875 7.64374 14.1375 7.36249 14.1375 6.99999C14.1375 6.59999 13.95 6.29999 13.6 6.13124C13.3438 6.00624 13.25 5.99999 9.93126 5.99999C7.04376 6.00624 6.50626 6.01874 6.36251 6.09999Z" fill="black"/>
</svg>
